<?xml version="1.0" encoding="UTF-8" standalone="no"?>
<!-- Created with Inkscape (http://www.inkscape.org/) -->

<svg
   width="99.49437mm"
   height="39.984299mm"
   viewBox="0 0 99.49437 39.984299"
   version="1.1"
   id="svg1"
   xmlns="http://www.w3.org/2000/svg"
   xmlns:svg="http://www.w3.org/2000/svg">
  <defs
     id="defs1" />
  <g
     id="layer1"
     transform="translate(-55.252822,-128.50785)">
    <path
       style="font-size:47.2207px;font-family:'Comic Sans MS';-inkscape-font-specification:'Comic Sans MS';mix-blend-mode:exclusion;stroke:#ff0000;stroke-width:1.825;stroke-linejoin:round;stroke-opacity:0.739308;paint-order:stroke fill markers"
       d="m 88.860113,160.61644 q 0,1.10674 -0.368912,3.68912 -0.368911,2.32875 -2.467097,2.32875 -1.268134,0 -3.020464,-1.6601 -9.384192,-8.87694 -21.535222,-25.61631 l -0.115284,5.23394 -0.06917,5.25699 q 0,1.91373 0.06917,5.74119 0.09223,3.82746 0.09223,5.76425 0,6.20232 -2.397926,6.20232 -1.268134,0 -2.005957,-0.80699 -0.668653,-0.71477 -0.668653,-1.70622 0,-0.96839 0.138342,-2.92823 0.161399,-1.95985 0.161399,-2.92824 0,-1.42953 0.09223,-4.26554 0.09223,-2.85907 0.09223,-4.2886 0,-1.52176 -0.06917,-4.58834 -0.06917,-3.08964 -0.06917,-4.6114 0,-1.45259 -0.276684,-4.31165 -0.276683,-2.88213 -0.276683,-4.33472 0,-1.06062 0.899222,-1.93678 0.922279,-0.87617 2.075128,-0.87617 1.22202,0 3.020465,2.67461 5.741188,8.60026 10.329528,14.29533 5.464505,6.7557 11.989631,12.91191 0.06917,-0.99145 0,-2.92823 l -0.06917,-2.90518 q 0,-10.12202 -0.783938,-16.11684 -0.09223,-0.59948 -0.622538,-2.42098 -0.46114,-1.56787 -0.46114,-2.44404 0,-2.67461 2.44404,-2.67461 4.011915,0 4.011915,14.96398 0,2.55933 -0.06917,7.65492 -0.06917,5.07254 -0.06917,7.63186 z m 24.117607,-8.34663 q 0,1.66011 0.023,4.98031 0.0231,3.32021 0.0231,4.98031 0,0.50725 0.0692,1.54482 0.0922,1.03756 0.0922,1.54482 0,0.99145 -0.66865,1.61399 -0.66866,0.64559 -1.63705,0.64559 -1.77539,0 -2.25958,-2.19041 -2.88213,1.4987 -6.64041,1.4987 -3.020469,0 -5.00337,-1.3373 -2.190413,-1.47565 -2.605439,-4.31166 -0.899222,-6.1101 -0.899222,-10.88289 0,-3.15881 0.691709,-7.19378 0.322798,-2.00596 2.190414,-2.00596 0.99145,0 1.660102,0.64559 0.668653,0.62254 0.668653,1.61399 0,1.06062 -0.345855,3.38938 -0.322798,2.32876 -0.322798,3.55078 0,3.85051 0.253627,6.59429 0.253627,2.74378 0.76088,4.40389 0.760881,0.41502 1.498709,0.64559 0.73782,0.20751 1.45259,0.20751 3.08963,0 6.52512,-0.99145 l -0.0231,-4.68056 -0.0461,-4.47306 q 0,-4.98031 0.43808,-8.64637 0.25363,-2.12124 2.23653,-2.12124 0.99145,0 1.6601,0.6456 0.66866,0.64559 0.62254,1.61399 z m 16.50879,14.43368 q -3.52772,0 -6.40984,-1.38342 -0.73782,1.10673 -1.79844,1.10673 -0.87617,0 -1.49871,-0.62254 -0.59948,-0.59948 -0.59948,-1.52176 0,-0.59948 0.0461,-1.77539 0.0692,-1.1759 0.0692,-1.77538 0,-2.44404 -0.13835,-7.30907 -0.11528,-4.88808 -0.11528,-7.33212 0,-1.68316 0.0231,-6.36372 0.023,-4.70363 0.023,-6.40984 0,-1.38342 0.57643,-2.49016 0.76088,-1.40647 2.09818,-1.40647 1.72928,0 1.72928,2.00595 0,0.3228 -0.11529,0.94534 -0.11528,0.62254 -0.11528,0.94534 l -0.0692,5.04947 -0.0461,5.87953 q 2.00596,-1.36036 3.8044,-2.02901 1.82151,-0.69171 3.41244,-0.69171 4.95725,0 8.04688,3.8044 2.90518,3.57384 2.90518,8.78471 0,5.257 -3.38937,8.92306 -3.38938,3.66606 -8.43886,3.66606 z m 0.87617,-20.82046 q -1.89068,0 -3.87358,1.06062 -0.96839,0.53031 -3.3202,2.28264 l -0.0461,3.98886 0.0231,3.59689 0.0231,3.78135 q 1.10673,0.50725 3.11269,1.29119 1.42953,0.43808 3.20492,0.43808 3.34326,0 5.48756,-2.35181 2.1443,-2.35182 2.1443,-5.85648 0,-3.43549 -1.72927,-5.74119 -1.86762,-2.49015 -5.02642,-2.49015 z m 20.77434,-9.33808 q -1.10673,0 -1.91373,-0.78393 -0.80699,-0.78394 -0.80699,-1.89068 0,-1.10673 0.80699,-1.89067 0.807,-0.78394 1.91373,-0.78394 1.10674,0 1.89067,0.78394 0.807,0.78394 0.807,1.89067 0,1.10674 -0.807,1.89068 -0.78393,0.78393 -1.89067,0.78393 z m 1.03757,18.72227 q 0,1.38342 0.0692,4.15026 0.0922,2.74378 0.0922,4.1272 0,1.01451 -0.62253,1.6601 -0.62254,0.6456 -1.63705,0.6456 -0.99145,0 -1.63705,-0.6456 -0.62253,-0.64559 -0.62253,-1.6601 0,-1.38342 -0.0922,-4.1272 -0.0692,-2.76684 -0.0692,-4.15026 0,-2.16735 0.23057,-5.39533 0.23057,-3.25104 0.23057,-5.41839 0,-1.03757 0.62254,-1.68316 0.64559,-0.6456 1.63704,-0.6456 0.99145,0 1.61399,0.6456 0.6456,0.64559 0.6456,1.68316 0,2.16735 -0.23057,5.41839 -0.23057,3.22798 -0.23057,5.39533 z"
       id="text1"
       aria-label="Nubi" />
  </g>
</svg>
