<?xml version="1.0" encoding="UTF-8" standalone="no"?>
<svg
   viewBox="0 0 40 40"
   width="25"
   height="25"
   version="1.1"
   id="svg1"
   xmlns="http://www.w3.org/2000/svg"
   xmlns:svg="http://www.w3.org/2000/svg">
  <defs
     id="defs1" />
  <path
     fill="#ffffff"
     d="M 19.820312,0 C 1.439312,0 0,1.439312 0,19.820312 v 0.359376 C 0,38.560688 1.439312,40 19.820312,40 h 0.359376 C 38.560688,40 40,38.560688 40,20.179688 V 20 C 40,1.452 38.548,0 20,0 Z M 16,4 h 8 c 11.129,0 12,0.871 12,12 v 8 C 36,35.129 35.129,36 24,36 H 16 C 4.871,36 4,35.129 4,24 V 16 C 4,4.871 4.871,4 16,4 Z M 29.994141,8 C 28.889141,8.003 27.997,8.900859 28,10.005859 28.003,11.110859 28.900859,12.003 30.005859,12 31.110859,11.997 32.003,11.099141 32,9.994141 31.997,8.889141 31.099141,7.997 29.994141,8 Z M 19.976562,10 C 14.454563,10.013 9.987,14.501437 10,20.023438 10.013,25.545437 14.501437,30.013 20.023438,30 25.545437,29.987 30.013,25.498562 30,19.976562 29.987,14.454563 25.498562,9.987 19.976562,10 Z m 0.0098,4 C 23.299328,13.992 25.992,16.673328 26,19.986328 26.007,23.299328 23.326672,25.992 20.013672,26 16.700672,26.008 14.008,23.327672 14,20.013672 13.992,16.700672 16.673328,14.008 19.986328,14 Z"
     id="path1" />
</svg>
